# xmcd
#
# Track frame offsets:
#	150
#	16573
#	39681
#	93294
#	115869
#	156126
#	178846
#	190608
#	228447
#
# Disc length: 3377 seconds
#
# Revision: 0
# Processed by: cddbd v1.5.2PL0 Copyright (c) Steve Scherf et al.
# Submitted via: dBpowerAMP V4.0
#
DISCID=620d2f09
DTITLE=Catfish Hodge - Twenty Years
DYEAR=1999
DGENRE=Blues
TTITLE0=Ain't Got It No More
TTITLE1=Elmo's Blues
TTITLE2=Boogie Man Gonna Git Ya
TTITLE3=Twenty Years
TTITLE4=My Father
TTITLE5=Dust Bowl Blues
TTITLE6=Six O'clock News
TTITLE7=To The Left
TTITLE8=Sharky
EXTD=
EXTT0=
EXTT1=
EXTT2=
EXTT3=
EXTT4=
EXTT5=
EXTT6=
EXTT7=
EXTT8=
PLAYORDER=
